<svg width="1600" height="1000" viewBox="0 0 1600 1000" fill="none" xmlns="http://www.w3.org/2000/svg">
  <defs>
    <linearGradient id="bg" x1="140" y1="60" x2="1440" y2="920" gradientUnits="userSpaceOnUse">
      <stop offset="0" stop-color="#FFF8FBFF"/>
      <stop offset="0.46" stop-color="#FFF0F5FF"/>
      <stop offset="1" stop-color="#FFE7EEF8"/>
    </linearGradient>
    <radialGradient id="orbA" cx="0" cy="0" r="1" gradientUnits="userSpaceOnUse" gradientTransform="translate(1210 230) rotate(145) scale(360 260)">
      <stop stop-color="#B2BDE0FF"/>
      <stop offset="1" stop-color="#00BDE0FF"/>
    </radialGradient>
    <radialGradient id="orbB" cx="0" cy="0" r="1" gradientUnits="userSpaceOnUse" gradientTransform="translate(360 830) rotate(25) scale(420 300)">
      <stop stop-color="#A7D8C8FF"/>
      <stop offset="1" stop-color="#00D8C8FF"/>
    </radialGradient>
    <radialGradient id="orbC" cx="0" cy="0" r="1" gradientUnits="userSpaceOnUse" gradientTransform="translate(1350 760) rotate(35) scale(300 220)">
      <stop stop-color="#A8E9C6FF"/>
      <stop offset="1" stop-color="#00E9C6FF"/>
    </radialGradient>
  </defs>
  <rect width="1600" height="1000" rx="42" fill="url(#bg)"/>
  <circle cx="1208" cy="236" r="252" fill="url(#orbA)"/>
  <circle cx="358" cy="832" r="280" fill="url(#orbB)"/>
  <circle cx="1350" cy="762" r="200" fill="url(#orbC)"/>
  <path d="M972 120C1122 188 1198 278 1210 420C1222 564 1136 702 958 790" stroke="#44FFFFFF" stroke-width="2"/>
  <path d="M1040 146C1180 226 1236 330 1216 488" stroke="#34FFFFFF" stroke-width="2"/>
  <path d="M230 146C440 130 648 194 836 332" stroke="#38FFFFFF" stroke-width="2"/>
  <path d="M122 224C284 312 370 404 382 566" stroke="#25FFFFFF" stroke-width="2"/>
</svg>
